<svg version="1.0" xmlns="http://www.w3.org/2000/svg" width="933.333" height="933.333" viewBox="0 0 700 700"><path d="M564.1 2c-2.9 1.1-6.5 2.7-8 3.7-4.7 3.1-10.4 9.7-13 15.3-2.2 4.7-2.6 6.8-2.6 15 .1 7.9.5 10.3 2.4 14.3 12.2 24.9 45.2 28.4 61.4 6.4 6.6-8.8 8.5-21.9 4.9-32.7-3.3-9.9-13.1-19.5-22.7-22.2-6.9-2-16.5-1.9-22.4.2zM337.8 49.5c-.2.1-4.6.5-9.8.9-11.1.7-15.6 1.2-26.5 3.1-4.4.8-9.3 1.7-11 2-1.6.2-4.1.7-5.5 1-1.4.3-3.5.8-4.7 1.1-7.6 1.6-28.6 8.2-39.7 12.6-14.2 5.5-35.9 16.3-47.1 23.2l-7 4.4-4.2-5.8c-7.8-10.7-20.6-19.6-34.8-24.3-9.1-2.9-27.7-3.3-37.4-.6-4.1 1.1-8.3 2.5-9.5 3.2-1.2.6-2.4 1.1-2.7 1.2-.3 0-3.4 1.7-6.8 3.8-15 9.3-26.4 25.2-30.5 42.8-1.4 6.2-1.6 25.3-.3 30.5 4.3 16.8 15.6 33.5 28.4 41.9 2.4 1.5 4.3 3 4.3 3.4 0 .3-1.6 3.3-3.6 6.5-7.1 11.8-15.5 29.7-21.5 46-2.7 7.3-9.3 28.8-10.3 33.9-2.3 11.1-4.6 23.2-5.1 27.7-.4 3-.9 6.6-1 8-.8 5.6-1.9 24-1.9 31 0 4.1-.3 7.7-.6 8-.3.3-2.3 3-4.6 6-17.7 23.9-31.6 50.9-38.6 74.5-6.3 21.5-7.2 46.3-2.4 64.7 11.3 43.7 47.5 73 104.1 84.4 1.1.2 7.6 1.1 14.5 2 6.9.8 13.6 1.7 15 1.9 1.4.2 8.8.4 16.5.4l14 .1 8.5 6.1c22.5 16.1 52.4 31.2 79 39.9 9.2 3 25.6 7.6 30 8.4 1.4.2 4.5.9 7 1.4 4.6 1.1 7.1 1.5 17 2.7 3 .4 6.4.9 7.5 1.1 11.1 2.3 53.9 2.2 69-.1 1.7-.2 6.6-.9 11-1.5 33.2-4.7 73.6-19.1 104.7-37.1 3.6-2.2 6.9-3.9 7.2-3.9.3 0 .6 2 .6 4.4 0 13.2 6.5 32.9 15.2 46.1 4.5 6.9 6.3 9 13.7 16.3 11.6 11.4 26.5 19.9 43.1 24.3 7.2 2 11 2.3 24 2.3 13.2 0 16.7-.3 23.5-2.3 28.4-8.2 50.5-26.7 62.6-52.5 6.8-14.6 8.2-21.6 8.2-40.6 0-14.9-.2-17.3-2.6-25.1-5.1-16.7-12-28.8-23.1-40.7-16.1-17-39.9-28.3-62.3-29.4-2.9-.2-5.3-.4-5.3-.6 0-.2 1.7-3.4 3.9-7 12.2-21 23.1-46.8 29.5-69.7 2.8-10.3 7.1-30.4 8.1-38.5.4-3 .9-6.2 1-7 .6-3.2 1.6-18 2-29.2l.4-11.6 5.4-7.4c19.5-26.4 33.2-54.1 39.8-80.6 2.7-10.8 3.2-14.9 3.5-27.7.2-10.4-.1-17.3-1.1-22.5-5.6-28.4-20.6-51.2-44.3-67.4-21.2-14.4-43.7-22.1-79.7-27.1-2.2-.3-12.5-.8-23-1.1-17.3-.5-19.3-.8-22-2.7C481 74 433.3 55.9 376 50.5c-6.7-.7-37.7-1.5-38.2-1zM609 185.4c13.7 6.4 23.1 15.7 26.7 26.1 2.3 6.8 2.5 19.8.3 29.5-1.7 7.9-3 11.2-3 7.4 0-1.1-.4-2.4-.8-3-.5-.5-2.1-4.3-3.7-8.4-5.1-13.7-17.9-38.2-26.7-51.3-2.6-3.8-3.3-5.5-2.1-4.8 1 .5 5.2 2.6 9.3 4.5zM81.6 484.8c3.7 7.3 9.5 17.8 13 23.2 3.7 5.9 5.7 10 4.9 10-.7 0-5.3-2-10.2-4.5-23.3-11.6-31-29.1-24.7-56.5l1.6-7.4 4.4 11c2.4 6 7.4 16.9 11 24.2zM26.9 629.7c-10.7 2.7-18.9 9.7-23.8 20.2-2.2 4.8-2.6 6.9-2.5 14.6.1 7.7.5 9.8 2.8 14.5 6.8 13.9 18.8 21.2 34 20.6 15.5-.6 28.3-10.8 33.1-26.5.4-1.3.7-5.6.7-9.6-.1-22.6-22.2-39.4-44.3-33.8z"/></svg>